<?xml version="1.0" encoding="UTF-8"?>
<svg xmlns="http://www.w3.org/2000/svg" width="16" height="16" viewBox="0 0 16 16">
  <g fill="#222222">
    <path d="M2 4.5A1.5 1.5 0 0 1 3.5 3h9A1.5 1.5 0 0 1 14 4.5v4A1.5 1.5 0 0 1 12.5 10h-9A1.5 1.5 0 0 1 2 8.5zm1.5-.5a.5.5 0 0 0-.5.5v4a.5.5 0 0 0 .5.5h9a.5.5 0 0 0 .5-.5v-4a.5.5 0 0 0-.5-.5z"/>
    <circle cx="8" cy="5.25" r="1.15"/>
    <circle cx="5" cy="7.75" r="1.15"/>
    <circle cx="11" cy="7.75" r="1.15"/>
    <path d="M7.6 5.9 5.4 7.5l-.6-.8 2.2-1.6zm.8 0 2.2 1.6-.6.8-2.2-1.6zM5 7.25h6v1H5z"/>
    <path d="M3.3 11.6a.5.5 0 0 1 .7.1c.9 1.1 2.4 1.8 4 1.8s3.1-.7 4-1.8a.5.5 0 1 1 .8.6c-1.1 1.4-2.9 2.2-4.8 2.2s-3.7-.8-4.8-2.2a.5.5 0 0 1 .1-.7z"/>
  </g>
</svg>
